<svg xmlns="http://www.w3.org/2000/svg" viewBox="0 0 630 630">
  <path fill="#f7df1e" d="M0 0h630v630H0z"/>
  <path d="M423.2 492.2c12.7 20.7 29.2 36 58.4 36 24.5 0 40.2-12.3 40.2-29.3 0-20.3-16.1-27.4-43.1-39.3l-14.8-6.3c-42.7-18.2-71.1-41-71.1-89.2 0-44.4 33.8-78.2 86.7-78.2 37.6 0 64.7 13 84.2 47.4l-46.1 29.6c-10.2-18.2-21.1-25.4-38.1-25.4-17.3 0-28.3 11-28.3 25.4 0 17.8 11 25 36.4 36l14.8 6.3c50.3 21.5 78.7 43.5 78.7 93 0 53.3-41.9 82.5-98.1 82.5-55 0-90.5-26.2-108-60.6zm-209.1 5.1c9.3 16.5 17.7 30.5 38 30.5 19.5 0 31.8-7.6 31.8-37.2V289.3H343v202c0 61.4-36 89.3-88.4 89.3-47.4 0-74.9-24.6-88.8-54.1z"/>
</svg>
