<svg xmlns="http://www.w3.org/2000/svg" viewBox="0 0 107 128">
  <path d="M94.2 22.8A34.2 34.2 0 0048.4 13L22.3 29.6a30 30 0 00-13.5 20 31.5 31.5 0 003 20.3A30 30 0 007.5 81a31.9 31.9 0 005.4 24 34.2 34.2 0 0045.8 10l26.1-16.7a30 30 0 0013.5-20 31.5 31.5 0 00-3-20.3A30 30 0 0099.5 47a31.9 31.9 0 00-5.4-24" fill="#ff3e00"/>
  <path d="M45.8 106.6a20.7 20.7 0 01-22.2-8.3 19.2 19.2 0 01-3.3-14.5 18.2 18.2 0 01.6-2.4l.5-1.5 1.4 1a33.6 33.6 0 0010.2 5l1 .4-.2 1a5.8 5.8 0 001 3.8 6.2 6.2 0 006.8 2.5 5.7 5.7 0 001.6-.7l26-16.6a5.4 5.4 0 002.5-3.6 5.8 5.8 0 00-1-4.4 6.2 6.2 0 00-6.7-2.5 5.7 5.7 0 00-1.6.7l-10 6.3a19 19 0 01-5.2 2.4 20.7 20.7 0 01-22.3-8.3 19.2 19.2 0 01-3.2-14.5 18 18 0 018.1-12l26-16.7a19 19 0 015.4-2.3 20.7 20.7 0 0122.2 8.3 19.2 19.2 0 013.3 14.5 18.4 18.4 0 01-.6 2.4l-.5 1.5-1.4-1a33.6 33.6 0 00-10.2-5l-1-.4.2-1a5.9 5.9 0 00-1-3.8 6.2 6.2 0 00-6.8-2.5 5.7 5.7 0 00-1.6.7l-26 16.6a5.4 5.4 0 00-2.5 3.6 5.8 5.8 0 001 4.4 6.2 6.2 0 006.7 2.5 5.8 5.8 0 001.6-.7l10-6.3a19 19 0 015.2-2.4 20.7 20.7 0 0122.3 8.3 19.2 19.2 0 013.2 14.5 18 18 0 01-8.1 12l-26 16.7a19 19 0 01-5.4 2.3" fill="#fff"/>
</svg>
